<svg width="512" height="512" viewBox="0 0 512 512" fill="none" xmlns="http://www.w3.org/2000/svg">
  <rect width="512" height="512" fill="#F5F1EA"/>
  <rect x="88" y="88" width="336" height="336" rx="48" fill="#FFF9F0"/>
  <rect x="88" y="88" width="336" height="336" rx="48" stroke="#D5D8DE" stroke-width="8"/>

  <rect x="154" y="110" width="54" height="292" fill="#1D3557"/>
  <rect x="214" y="110" width="14" height="292" fill="#F1FAEE"/>
  <rect x="238" y="110" width="70" height="292" fill="#0B3D2E"/>
  <rect x="314" y="110" width="12" height="292" fill="#D8A12F"/>
  <rect x="334" y="110" width="40" height="292" fill="#B91C1C"/>

  <rect x="110" y="150" width="292" height="54" fill="#0B3D2E"/>
  <rect x="110" y="210" width="292" height="14" fill="#F1FAEE"/>
  <rect x="110" y="234" width="292" height="70" fill="#1D3557"/>
  <rect x="110" y="310" width="292" height="12" fill="#D8A12F"/>
  <rect x="110" y="330" width="292" height="40" fill="#B91C1C"/>

  <rect x="154" y="150" width="54" height="54" fill="#E7DCC8" opacity="0.72"/>
  <rect x="238" y="150" width="70" height="54" fill="#E7DCC8" opacity="0.72"/>
  <rect x="334" y="150" width="40" height="54" fill="#E7DCC8" opacity="0.72"/>
  <rect x="110" y="234" width="98" height="70" fill="#E7DCC8" opacity="0.72"/>
  <rect x="214" y="234" width="14" height="70" fill="#E7DCC8" opacity="0.72"/>
  <rect x="314" y="234" width="12" height="70" fill="#E7DCC8" opacity="0.72"/>
  <rect x="154" y="330" width="54" height="40" fill="#E7DCC8" opacity="0.72"/>
  <rect x="238" y="330" width="70" height="40" fill="#E7DCC8" opacity="0.72"/>
  <rect x="334" y="330" width="40" height="40" fill="#E7DCC8" opacity="0.72"/>

  <rect x="88" y="88" width="336" height="336" rx="48" stroke="#F8F5EE" stroke-width="18"/>
</svg>
